<?xml version="1.0" standalone="no"?>
<!DOCTYPE svg PUBLIC "-//W3C//DTD SVG 20010904//EN"
 "http://www.w3.org/TR/2001/REC-SVG-20010904/DTD/svg10.dtd">
<svg version="1.0" xmlns="http://www.w3.org/2000/svg"
 width="1250.000000pt" height="1250.000000pt" viewBox="0 0 1250.000000 1250.000000"
 preserveAspectRatio="xMidYMid meet">

<g transform="translate(0.000000,1250.000000) scale(0.100000,-0.100000)"
fill="#000000" stroke="none">
<path d="M6420 11683 c-583 -42 -1131 -170 -1685 -393 -179 -72 -563 -262
-720 -357 -164 -99 -319 -203 -460 -308 -60 -45 -162 -113 -225 -150 -383
-226 -695 -469 -1020 -795 -421 -420 -733 -854 -1001 -1390 -318 -636 -507
-1330 -560 -2048 -13 -186 -7 -728 10 -887 107 -964 414 -1769 978 -2557 806
-1126 1978 -1886 3298 -2137 369 -71 689 -96 1095 -88 471 10 810 56 1275 173
686 174 1315 470 1875 884 80 58 183 128 230 155 117 66 343 216 475 315 368
277 706 617 990 995 276 368 525 802 719 1256 66 155 80 215 53 237 -8 7 -188
11 -538 13 l-527 2 -45 -27 c-55 -32 -82 -70 -169 -236 -35 -69 -77 -144 -92
-168 l-27 -43 -159 7 c-247 11 -289 -10 -381 -188 -231 -451 -517 -827 -884
-1161 -135 -123 -168 -147 -242 -176 l-51 -20 82 162 c134 265 202 462 247
713 20 111 23 163 23 369 0 269 -14 383 -79 620 -123 447 -406 968 -789 1449
-220 276 -410 480 -1126 1209 -453 461 -597 616 -749 806 -305 383 -519 786
-576 1084 -19 99 -19 293 -1 389 32 165 114 358 222 520 36 54 76 105 89 114
36 23 239 62 367 69 198 12 486 -21 745 -85 460 -115 1030 -382 1438 -674 536
-384 952 -864 1274 -1468 67 -126 115 -179 178 -198 27 -8 183 -10 525 -8 476
3 487 3 515 24 16 12 29 33 31 49 4 34 -31 134 -97 280 l-50 110 397 5 c426 5
436 7 448 57 10 38 -8 98 -78 258 -678 1547 -1979 2673 -3562 3080 -470 121
-839 166 -1341 163 -165 -1 -320 -3 -345 -5z m880 -257 c1610 -176 2979 -1057
3822 -2460 91 -150 308 -567 308 -590 0 -3 -146 -6 -325 -6 l-326 0 -17 31
c-442 806 -1027 1454 -1747 1933 -717 478 -1494 764 -2340 860 -521 60 -1124
36 -1614 -65 -52 -11 -96 -17 -98 -15 -8 8 430 146 587 185 275 68 580 117
870 140 168 14 707 5 880 -13z m-670 -470 c265 -32 560 -88 765 -145 l70 -20
-95 7 c-146 11 -426 7 -515 -7 -358 -56 -681 -215 -940 -462 -64 -62 -107 -94
-143 -108 -220 -87 -426 -225 -598 -402 -186 -192 -325 -421 -404 -667 -19
-59 -29 -78 -34 -66 -13 35 -7 367 9 479 20 142 46 250 144 593 45 155 81 284
81 287 0 3 -37 -15 -82 -39 -46 -24 -186 -96 -313 -161 -216 -110 -302 -162
-453 -276 -34 -26 -115 -74 -180 -108 -288 -150 -775 -559 -1085 -911 -555
-631 -909 -1417 -1011 -2250 -32 -255 -38 -402 -33 -739 5 -351 15 -475 63
-751 82 -483 250 -949 500 -1390 20 -36 32 -60 26 -55 -18 18 -123 207 -202
365 -586 1169 -678 2550 -255 3825 85 256 147 410 270 660 315 642 752 1201
1295 1657 81 68 124 94 285 173 340 166 707 300 1070 390 265 66 485 101 870
139 110 11 767 -3 895 -18z m896 -425 c654 -112 1365 -444 1924 -899 154 -125
471 -446 594 -602 169 -213 310 -427 440 -670 37 -69 81 -142 98 -163 26 -33
130 -238 140 -275 2 -11 -61 -13 -330 -14 l-333 -2 -86 155 c-459 825 -1083
1423 -1925 1845 -564 283 -1117 433 -1591 434 -65 0 -116 4 -113 8 3 5 52 32
108 59 144 71 263 108 478 147 14 2 126 3 250 1 170 -2 255 -8 346 -24z
m-2971 -655 c-156 -645 -63 -1239 294 -1871 171 -303 467 -709 780 -1070 57
-66 343 -358 635 -650 669 -666 826 -839 1039 -1143 224 -320 406 -680 465
-922 95 -390 2 -828 -257 -1211 -39 -57 -84 -120 -100 -139 -29 -35 -29 -34
14 75 53 133 89 266 111 417 22 151 15 420 -15 560 -69 318 -294 761 -584
1147 -228 303 -422 513 -984 1066 -552 543 -710 718 -1018 1126 -385 511 -582
899 -664 1309 -75 375 -53 674 85 1145 20 66 37 127 40 137 5 16 103 83 154
106 14 6 25 11 26 11 1 1 -9 -41 -21 -93z m949 -162 c-157 -399 -132 -779 81
-1222 140 -291 325 -566 580 -867 148 -174 223 -253 801 -841 523 -533 729
-754 897 -959 470 -574 767 -1152 858 -1670 29 -168 32 -456 6 -610 -37 -217
-114 -448 -214 -650 -25 -49 -124 -226 -220 -392 l-176 -302 -83 -35 c-45 -20
-87 -36 -92 -36 -6 0 12 42 40 93 143 263 236 526 285 802 25 145 25 529 0
678 -76 453 -270 901 -600 1390 -269 400 -506 668 -1323 1497 -483 490 -579
592 -740 786 -342 411 -571 826 -639 1159 -21 105 -21 295 0 398 52 249 187
504 369 695 81 85 196 186 203 179 1 -2 -13 -43 -33 -93z m-1460 -214 c-44
-196 -57 -342 -51 -584 4 -183 9 -245 31 -357 100 -523 354 -999 893 -1677
207 -260 322 -383 878 -937 640 -639 791 -805 1012 -1116 211 -297 402 -674
462 -908 46 -185 52 -401 16 -591 -65 -333 -280 -717 -534 -952 -51 -48 -72
-59 -157 -87 -168 -54 -254 -66 -489 -65 -272 0 -436 28 -700 117 -430 146
-967 465 -1410 836 -129 109 -372 348 -483 476 -414 480 -688 1008 -841 1620
-169 677 -169 1477 0 2164 178 726 550 1371 1101 1906 115 112 289 268 294
263 1 -2 -8 -50 -22 -108z m-1758 -252 c-129 -205 -179 -296 -291 -523 -288
-586 -458 -1176 -532 -1845 -22 -206 -26 -842 -5 -1040 116 -1115 530 -2072
1279 -2959 126 -149 435 -459 583 -585 734 -625 1596 -1032 2513 -1186 634
-107 1295 -98 1926 25 69 14 126 23 128 21 9 -9 -388 -132 -582 -181 -971
-245 -1936 -213 -2854 94 -727 243 -1373 642 -1927 1188 -719 708 -1219 1597
-1423 2530 -83 381 -115 678 -115 1083 0 598 78 1076 268 1645 204 607 516
1168 917 1650 76 91 188 215 195 215 1 0 -34 -60 -80 -132z m458 -889 c-159
-319 -276 -661 -349 -1024 -159 -797 -113 -1692 126 -2415 335 -1016 1026
-1838 2064 -2458 506 -301 946 -455 1380 -481 l120 -7 -55 -17 c-151 -47 -479
-62 -690 -32 -478 68 -1008 315 -1585 739 -287 211 -635 541 -839 796 -483
605 -755 1284 -846 2115 -18 159 -24 611 -11 790 47 660 220 1255 511 1760 55
95 230 365 236 365 2 0 -25 -59 -62 -131z m8671 -4026 c-10 -41 -193 -402
-275 -543 -161 -276 -372 -574 -563 -795 -154 -178 -170 -187 -74 -40 46 72
124 199 172 284 175 309 385 767 385 841 0 35 -3 39 -37 51 -26 8 -82 10 -200
5 -89 -4 -167 -5 -171 -2 -5 3 16 55 47 116 l56 110 334 0 333 0 -7 -27z
m-1252 -443 l29 0 -38 -52 c-98 -138 -398 -476 -348 -393 10 17 41 69 70 117
29 47 83 143 120 213 l67 127 36 -6 c20 -3 49 -6 64 -6z m521 -97 c-200 -432
-465 -854 -759 -1208 -167 -201 -506 -537 -655 -647 -19 -14 -104 -60 -188
-102 -715 -357 -1560 -556 -2362 -556 -1663 0 -3184 819 -4161 2240 -36 52
-69 102 -74 110 -17 33 14 -9 80 -104 314 -456 763 -884 1290 -1231 724 -476
1316 -670 1908 -627 369 27 668 143 978 377 53 40 141 96 197 124 530 273 959
825 1072 1381 15 76 18 81 23 50 15 -84 19 -273 8 -390 -22 -226 -74 -428
-168 -650 -56 -132 -94 -203 -315 -583 -99 -170 -178 -310 -176 -311 10 -10
752 273 865 329 152 76 348 203 518 336 66 52 161 116 210 143 142 77 275 163
418 270 422 316 764 662 1024 1039 l75 107 118 0 119 0 -45 -97z m-8233 -98
l10 -20 -16 20 c-9 11 -21 29 -26 40 l-10 20 16 -20 c9 -11 21 -29 26 -40z"/>
</g>
</svg>
