<?xml version="1.0" standalone="no"?>
<!DOCTYPE svg PUBLIC "-//W3C//DTD SVG 20010904//EN"
 "http://www.w3.org/TR/2001/REC-SVG-20010904/DTD/svg10.dtd">
<svg version="1.0" xmlns="http://www.w3.org/2000/svg"
 width="4167.000000pt" height="3334.000000pt" viewBox="0 0 4167.000000 3334.000000"
 preserveAspectRatio="xMidYMid meet">

<g transform="translate(0.000000,3334.000000) scale(0.100000,-0.100000)"
fill="#000000" stroke="none">
<path d="M17455 25802 c-50 -7 -50 -7 -48 -42 6 -79 86 -778 125 -1080 49
-375 51 -428 19 -493 -12 -26 -108 -144 -213 -264 -203 -232 -518 -607 -684
-813 -263 -327 -317 -426 -348 -633 -37 -254 -144 -460 -609 -1172 -261 -400
-371 -575 -479 -760 -297 -510 -503 -922 -561 -1125 -72 -249 -58 -495 43
-732 93 -217 295 -419 557 -553 84 -44 311 -137 364 -150 25 -6 30 3 204 362
290 595 556 1125 657 1313 617 1137 1247 1834 2143 2370 164 98 314 209 515
382 80 68 239 202 354 298 115 96 221 185 235 197 14 12 29 22 32 23 14 0 132
-292 198 -489 79 -238 131 -431 180 -677 85 -421 125 -954 87 -1135 -41 -192
-172 -323 -486 -488 -198 -103 -285 -132 -980 -321 -389 -106 -675 -191 -851
-253 -699 -248 -1199 -634 -1555 -1200 -64 -101 -231 -424 -223 -430 13 -11
480 -209 483 -206 2 2 29 55 61 118 194 390 463 696 810 923 344 226 724 361
2165 766 250 71 456 128 458 126 7 -5 -71 -284 -118 -424 -198 -588 -574
-1248 -1003 -1760 -259 -309 -523 -571 -1152 -1143 -495 -451 -971 -921 -1151
-1137 -289 -347 -491 -657 -612 -940 -237 -552 -261 -1071 -75 -1614 84 -245
219 -515 305 -611 29 -32 68 -62 100 -76 l53 -24 3370 -1 c3540 -1 3477 0
3805 -45 1038 -143 1878 -690 2484 -1616 246 -378 391 -697 481 -1066 40 -160
72 -361 81 -505 l7 -102 -5834 2 -5834 3 -3 39 c-8 90 71 350 162 541 259 537
754 947 1322 1096 259 68 -45 62 3562 66 l3262 3 -2 263 -3 262 -30 6 c-46 10
-5739 9 -6155 -1 -470 -11 -636 -36 -955 -141 -360 -120 -673 -311 -948 -579
-224 -217 -372 -421 -507 -695 -90 -183 -137 -305 -185 -480 -61 -222 -77
-343 -82 -617 -3 -136 -3 -258 1 -273 l6 -25 6381 0 6381 0 -5 362 c-3 268 -9
389 -21 463 -79 491 -193 861 -384 1250 -604 1228 -1792 2100 -3094 2269 -440
58 -870 65 -4115 66 -3039 1 -2866 -2 -2951 50 -60 37 -166 289 -213 510 -20
89 -23 136 -24 310 0 129 5 233 13 280 68 378 217 688 502 1045 67 84 227 253
450 476 371 372 527 521 995 948 724 662 1140 1126 1501 1676 320 488 569
1052 697 1575 20 80 59 240 87 355 61 249 175 599 254 780 81 184 183 376 291
545 108 171 140 231 246 474 43 99 83 184 88 189 12 12 135 -73 245 -168 190
-167 350 -383 489 -661 174 -347 299 -739 367 -1148 65 -393 62 -293 70 -2501
5 -1411 11 -2035 19 -2095 70 -524 244 -908 563 -1245 299 -316 768 -586 1154
-664 171 -35 285 -44 511 -39 199 4 216 5 230 23 13 18 14 320 10 2545 -7
3037 -23 4208 -62 4590 -115 1105 -582 2182 -1323 3050 -500 586 -1194 1093
-1957 1431 -541 239 -978 372 -1765 539 -157 33 -293 63 -303 66 -17 5 -18 0
-12 -53 31 -317 41 -635 26 -818 -11 -133 -52 -372 -70 -402 -5 -11 -47 38
-148 174 -425 571 -769 919 -1188 1198 -223 149 -401 229 -596 269 -87 18
-271 27 -344 18z m820 -855 c324 -253 587 -535 854 -916 60 -86 145 -205 190
-266 146 -199 158 -246 84 -354 -55 -81 -551 -575 -663 -661 -128 -98 -236
-170 -420 -280 -651 -390 -1175 -872 -1668 -1535 -356 -479 -623 -938 -1086
-1862 -97 -194 -180 -353 -185 -353 -18 0 -129 89 -164 132 -79 96 -105 221
-73 347 48 186 246 605 416 881 56 91 214 339 351 552 494 769 567 902 801
1463 127 306 198 453 282 590 266 429 572 781 944 1084 121 99 146 125 170
181 34 77 35 117 8 327 -31 238 -96 805 -96 834 0 18 11 13 83 -37 45 -31 123
-89 172 -127z m2550 -322 c465 -151 698 -241 981 -379 566 -276 992 -574 1389
-971 786 -785 1255 -1823 1404 -3105 66 -567 71 -829 71 -3837 l0 -2603 -29 0
c-15 0 -67 7 -113 15 -422 73 -901 453 -1112 880 -63 128 -89 201 -122 345
-41 177 -45 398 -38 2065 7 1821 1 2071 -67 2560 -113 824 -397 1574 -774
2042 -178 222 -413 418 -645 537 -90 47 -523 226 -545 226 -7 0 -104 -234
-216 -520 -186 -477 -205 -520 -226 -520 -13 0 -23 2 -23 5 0 3 -21 116 -46
252 -76 411 -113 534 -374 1238 -203 547 -203 546 -208 660 -5 115 6 164 174
840 109 437 101 408 117 402 6 -2 188 -62 402 -132z"/>
</g>
</svg>
