<?xml version="1.0" standalone="no"?>
<!DOCTYPE svg PUBLIC "-//W3C//DTD SVG 20010904//EN"
 "http://www.w3.org/TR/2001/REC-SVG-20010904/DTD/svg10.dtd">
<svg version="1.0" xmlns="http://www.w3.org/2000/svg"
 width="4167.000000pt" height="3334.000000pt" viewBox="0 0 4167.000000 3334.000000"
 preserveAspectRatio="xMidYMid meet">

<g transform="translate(0.000000,3334.000000) scale(0.100000,-0.100000)"
fill="#0B60B0" stroke="none">
<path d="M20376 25964 c-39 -8 -97 -27 -129 -40 -33 -14 -454 -249 -936 -523
-482 -274 -1468 -835 -2191 -1246 -723 -411 -1475 -838 -1670 -949 -288 -163
-365 -212 -411 -257 -58 -58 -101 -134 -118 -210 -7 -28 -11 -366 -11 -919 0
-570 -4 -888 -10 -912 -18 -64 -52 -92 -197 -163 -126 -62 -144 -75 -224 -154
-75 -75 -93 -101 -134 -187 -116 -243 -228 -333 -422 -342 -168 -8 -211 9
-603 234 -135 77 -378 215 -540 306 -162 91 -376 214 -475 273 -99 60 -209
121 -245 137 -206 94 -448 104 -670 28 -101 -35 -164 -69 -769 -417 -948 -545
-2204 -1260 -3795 -2162 -302 -171 -569 -328 -594 -348 -56 -46 -96 -100 -124
-172 l-22 -56 -1 -930 c-2 -999 -3 -981 49 -1084 31 -59 96 -128 167 -174 30
-19 295 -171 589 -338 608 -343 2070 -1174 3390 -1926 492 -280 931 -530 975
-555 171 -97 313 -134 475 -125 166 9 239 40 669 285 207 118 565 320 796 449
439 246 486 278 528 363 l22 45 2 745 c2 410 5 755 8 767 3 13 16 30 30 39 23
15 30 15 97 -6 40 -12 110 -41 155 -65 169 -89 270 -189 380 -374 152 -258
323 -371 560 -371 102 0 171 15 299 66 101 40 138 40 154 0 14 -38 15 -1083 1
-1136 -28 -101 -103 -186 -206 -234 -130 -61 -150 -73 -195 -116 -52 -50 -92
-127 -110 -210 -8 -40 -10 -300 -8 -980 3 -924 3 -925 25 -978 29 -71 91 -151
150 -194 26 -20 406 -237 843 -483 1420 -800 2994 -1691 3919 -2218 373 -213
474 -250 676 -250 131 0 238 25 360 82 44 21 289 157 545 303 740 422 1733
984 3180 1800 1408 794 1407 794 1465 893 57 98 56 70 55 1060 0 571 3 923 10
944 14 50 45 78 135 123 198 100 317 222 436 448 42 80 142 187 206 222 108
59 242 59 382 0 73 -31 374 -198 1101 -610 632 -359 591 -337 700 -373 177
-58 359 -49 530 24 41 18 723 402 1515 854 792 451 1915 1091 2495 1421 580
330 1089 622 1130 648 90 59 143 126 170 214 20 64 20 89 18 1025 l-3 960 -32
68 c-44 92 -114 157 -249 233 -313 177 -2311 1315 -3549 2022 -775 443 -1438
818 -1473 834 -205 93 -455 91 -657 -6 -38 -18 -275 -150 -525 -292 -250 -143
-580 -330 -734 -415 -285 -158 -363 -213 -413 -292 -60 -96 -57 -56 -63 -864
l-5 -742 -22 -22 -21 -22 -74 23 c-100 30 -227 91 -303 145 -97 69 -166 153
-234 284 -78 148 -132 217 -218 274 -199 132 -486 140 -725 21 -26 -13 -50
-24 -54 -24 -4 0 -4 143 0 318 4 189 3 393 -4 505 -12 213 -4 291 36 373 36
75 99 128 219 184 161 75 234 156 265 296 17 71 16 1854 0 1915 -20 74 -71
157 -127 209 -35 32 -162 111 -366 226 -171 98 -1144 651 -2162 1229 -1017
578 -2027 1152 -2243 1275 -455 258 -508 281 -672 286 -70 3 -128 -1 -174 -12z
m291 -259 c35 -8 91 -28 125 -43 35 -16 531 -297 1103 -624 572 -327 1663
-950 2425 -1383 762 -433 1393 -793 1403 -800 14 -10 15 -14 5 -22 -27 -22
-398 -234 -973 -558 -330 -186 -625 -357 -655 -381 -134 -105 -198 -252 -170
-390 27 -130 109 -239 227 -301 76 -41 146 -59 259 -68 381 -28 664 -122 827
-275 90 -84 122 -146 122 -235 -1 -89 -25 -145 -96 -221 -122 -128 -309 -217
-548 -259 -539 -95 -1058 30 -1281 307 -25 31 -69 99 -99 152 -95 168 -190
265 -329 335 -95 48 -178 64 -307 58 -123 -5 -206 -27 -319 -83 -92 -47 -553
-305 -1161 -652 -275 -157 -527 -297 -560 -311 -81 -33 -204 -34 -286 -2 -31
12 -292 155 -580 319 -288 164 -636 360 -772 437 -137 77 -264 152 -282 168
-90 74 -52 214 67 245 24 7 106 16 183 22 649 49 1122 365 1143 766 13 258
-151 473 -481 629 -481 228 -975 244 -1467 48 -320 -127 -428 -216 -577 -477
-84 -146 -133 -203 -215 -246 -53 -29 -76 -35 -146 -38 -136 -7 -168 5 -589
242 -657 367 -1363 770 -1363 776 0 7 394 232 2190 1253 619 352 1485 845
1925 1097 440 252 818 465 840 475 126 53 290 69 412 40z m-4750 -3537 c974
-552 977 -554 1062 -582 172 -57 326 -60 473 -9 155 54 262 147 339 297 79
153 154 247 262 330 195 149 482 227 832 227 267 1 443 -38 660 -146 92 -45
149 -81 192 -120 192 -173 155 -383 -98 -551 -175 -116 -355 -171 -660 -199
-90 -8 -190 -21 -222 -30 -88 -23 -167 -68 -220 -124 -90 -96 -115 -187 -126
-441 -5 -130 -11 -192 -21 -207 -19 -29 -65 -54 -190 -101 -317 -119 -464
-243 -599 -507 -93 -180 -193 -255 -351 -263 -109 -5 -185 13 -308 74 -126 63
-132 72 -132 198 0 321 -108 563 -315 711 -193 138 -529 236 -863 251 -123 6
-202 1 -419 -22 l-63 -7 0 827 0 827 30 -16 c16 -8 348 -196 737 -417z m9983
-366 c0 -820 -2 -879 -40 -952 -35 -67 -153 -159 -206 -160 -6 0 -25 40 -43
88 -78 218 -248 387 -483 481 -167 67 -414 124 -613 141 -71 6 -154 18 -184
26 -125 35 -170 153 -90 233 16 17 121 82 232 145 657 372 1413 796 1420 796
4 0 7 -359 7 -798z m3606 -903 c59 -24 5036 -2859 5062 -2883 12 -12 -698
-420 -3793 -2181 -297 -169 -664 -380 -815 -468 -287 -167 -404 -227 -480
-245 -134 -32 -257 -23 -385 28 -39 15 -144 71 -235 125 -550 326 -1410 804
-1504 836 -203 70 -362 63 -535 -22 -139 -69 -252 -190 -356 -384 -57 -106
-185 -228 -300 -287 -295 -151 -696 -197 -1065 -122 -189 39 -354 108 -477
200 -269 201 -198 475 172 661 128 65 318 109 570 133 215 20 321 58 416 147
73 68 112 153 117 260 8 152 -43 269 -158 358 -30 24 -199 124 -376 223 -459
258 -1278 723 -1284 729 -6 7 -50 -19 438 258 983 559 1281 725 1342 746 86
30 224 33 290 6 105 -43 179 -124 274 -300 152 -280 424 -449 868 -542 153
-32 418 -44 578 -26 214 25 465 95 614 171 202 103 355 256 423 423 38 91 44
246 13 337 -31 94 -74 163 -149 243 -214 228 -498 347 -936 392 -288 29 -335
53 -335 175 0 67 33 103 163 176 56 31 367 208 690 391 687 390 773 437 847
457 84 24 229 16 306 -15z m-17674 -58 c93 -24 145 -50 413 -206 457 -266
1262 -715 1340 -748 137 -57 204 -72 325 -72 140 0 214 22 325 96 113 76 196
176 316 382 68 118 201 229 348 293 203 88 549 138 795 115 217 -21 351 -58
542 -151 138 -67 220 -134 262 -214 23 -44 27 -63 27 -141 0 -78 -4 -97 -27
-140 -46 -88 -132 -154 -301 -235 -157 -75 -331 -116 -602 -140 -193 -17 -290
-54 -380 -144 -28 -28 -64 -78 -81 -111 -27 -56 -29 -68 -29 -175 0 -106 2
-120 29 -177 34 -75 112 -152 211 -210 39 -23 399 -227 800 -453 402 -226 736
-418 744 -426 8 -7 13 -15 10 -18 -8 -7 -1090 -621 -1364 -773 -429 -239 -438
-243 -567 -243 -160 0 -250 63 -342 237 -182 349 -455 535 -904 618 -426 79
-821 36 -1158 -124 -309 -148 -477 -346 -491 -581 -7 -109 8 -180 59 -283 34
-67 59 -100 138 -177 150 -148 325 -241 575 -305 131 -33 337 -65 424 -65 56
0 143 -24 188 -51 55 -34 70 -121 30 -180 -28 -42 -42 -50 -891 -529 -392
-221 -709 -394 -750 -408 -56 -20 -90 -25 -161 -25 -158 0 246 -221 -3585
1961 -894 509 -1629 928 -1633 932 -9 8 358 218 2533 1455 558 318 1314 749
1679 958 366 209 697 395 736 414 133 63 281 79 417 44z m10999 -125 c120 -28
185 -87 265 -239 202 -381 524 -571 1062 -628 168 -17 490 -7 617 21 195 42
377 114 531 211 33 22 64 39 68 39 4 0 5 -232 4 -515 l-3 -515 -30 -29 c-16
-16 -244 -152 -505 -302 -261 -149 -606 -347 -767 -440 -210 -122 -301 -169
-324 -169 -65 0 -225 107 -299 201 -22 28 -59 84 -82 123 -160 277 -350 417
-590 433 -130 9 -269 -23 -412 -94 -65 -33 -985 -551 -1404 -791 -107 -61
-219 -121 -250 -132 -120 -45 -275 -43 -394 5 -32 12 -248 131 -480 263 -233
132 -578 327 -767 434 -190 107 -353 205 -363 219 -17 23 -18 66 -16 891 l3
868 64 -30 c36 -17 101 -53 145 -79 45 -27 216 -124 381 -216 165 -92 442
-249 615 -349 366 -210 428 -236 577 -244 199 -9 267 16 673 250 284 164 1295
734 1368 772 46 24 168 55 217 55 22 1 65 -5 96 -13z m-4421 -1196 l5 -755 27
-58 c39 -84 105 -141 259 -226 189 -104 806 -452 1165 -656 225 -128 327 -180
397 -203 177 -59 301 -63 465 -16 102 30 138 48 460 231 705 401 1304 733
1367 758 90 36 227 46 301 21 102 -34 190 -128 288 -308 87 -159 210 -278 374
-360 51 -25 91 -53 105 -72 l22 -31 5 -925 c5 -924 5 -925 27 -983 44 -117
113 -197 208 -245 22 -11 71 -35 108 -53 82 -39 139 -99 163 -171 19 -58 18
-39 16 -666 -2 -386 -5 -453 -17 -449 -7 3 -56 20 -107 38 -174 60 -359 49
-523 -31 -141 -69 -233 -161 -312 -315 -92 -179 -180 -274 -323 -349 -62 -32
-175 -76 -232 -90 l-28 -6 0 708 c0 779 1 766 -62 885 -61 113 -85 129 -860
552 -392 215 -759 413 -816 441 -143 72 -216 89 -382 89 -126 -1 -142 -3 -230
-34 -52 -17 -126 -49 -165 -70 -170 -92 -1099 -619 -1290 -732 -323 -190 -369
-209 -509 -209 -116 1 -205 34 -287 108 -40 36 -62 69 -113 176 -36 73 -85
157 -112 190 -62 75 -167 156 -264 201 -142 68 -164 80 -184 108 -21 28 -21
38 -26 955 -5 920 -5 927 -27 979 -56 138 -117 201 -263 270 -120 57 -158 88
-195 155 l-30 53 0 572 c0 315 0 573 1 573 1 0 34 -15 75 -34 117 -54 188 -70
324 -70 135 -1 196 11 300 59 133 61 220 152 311 325 58 109 125 193 207 260
99 80 289 172 347 167 l25 -2 5 -755z m-1894 -997 c-4 -5 -539 294 -884 494
-240 140 -262 158 -262 218 0 66 57 134 128 155 20 6 96 15 167 20 184 13 357
49 517 106 82 30 245 110 298 147 l35 25 3 -581 c1 -319 0 -582 -2 -584z
m11138 937 c61 -11 191 -31 288 -44 284 -39 462 -114 605 -252 81 -79 113
-145 113 -235 0 -127 -76 -230 -248 -331 -210 -126 -464 -183 -772 -176 l-135
3 -3 528 -2 527 21 0 c12 0 71 -9 133 -20z m-2914 -2145 c437 -246 810 -459
829 -473 91 -68 71 -202 -38 -245 -21 -9 -121 -25 -222 -37 -221 -25 -315 -45
-477 -99 -238 -80 -412 -187 -507 -313 -55 -72 -110 -184 -127 -257 -6 -28
-16 -51 -22 -51 -52 1 -168 92 -218 169 l-28 45 0 859 c0 472 3 856 8 854 4
-2 365 -206 802 -452z m9993 -272 c3 -1004 5 -940 -25 -1005 -14 -30 -44 -72
-66 -94 -26 -24 -256 -161 -604 -358 -905 -513 -1777 -1010 -3133 -1784 -698
-399 -1301 -740 -1340 -757 -170 -79 -325 -74 -499 15 -50 25 -422 234 -826
465 -404 230 -768 433 -808 452 -122 57 -218 76 -347 70 -272 -13 -457 -133
-590 -385 -70 -134 -125 -205 -218 -283 -93 -78 -128 -94 -207 -94 -88 0 -110
12 -630 317 -239 140 -545 319 -680 398 -135 78 -257 154 -273 168 -15 14 -30
40 -35 56 -4 17 -6 259 -4 537 l3 506 132 -67 c437 -224 865 -275 1335 -160
420 103 640 257 809 566 101 186 205 266 354 272 88 5 159 -12 253 -60 156
-78 967 -534 1365 -767 318 -185 427 -224 631 -224 128 0 225 20 349 73 39 17
268 144 509 282 668 383 1858 1062 3222 1838 679 386 1249 710 1265 720 17 10
36 19 43 19 9 1 13 -150 15 -716z m-17683 -134 l0 -822 -67 7 c-156 15 -431
18 -538 7 -347 -38 -661 -161 -837 -329 -150 -143 -208 -303 -211 -586 l-2
-148 -35 -30 c-53 -44 -189 -107 -271 -124 -148 -32 -270 0 -374 97 -53 50
-74 81 -129 188 -37 70 -90 157 -120 193 -101 122 -271 226 -471 289 -222 68
-207 46 -210 305 -2 209 -10 256 -56 351 -31 64 -111 143 -179 176 -80 38
-151 54 -307 67 -303 25 -515 89 -694 210 -127 87 -190 179 -197 287 -5 76 8
117 62 190 100 137 341 254 626 305 166 29 448 29 615 -1 331 -60 553 -186
665 -381 126 -221 237 -345 365 -411 86 -45 120 -56 212 -69 150 -21 324 25
538 142 178 97 1477 832 1545 874 30 19 58 34 62 34 4 0 8 -370 8 -821z
m-10179 513 c288 -165 949 -541 1469 -837 520 -296 1386 -790 1925 -1098 539
-308 1008 -573 1042 -589 34 -15 102 -40 150 -55 77 -23 106 -27 228 -27 226
-1 295 24 661 236 357 208 1144 648 1159 648 3 0 5 -388 5 -862 0 -821 -1
-864 -19 -893 -18 -30 -126 -93 -1226 -712 -198 -112 -389 -213 -425 -225 -93
-32 -220 -31 -315 4 -41 14 -526 285 -1180 658 -1313 748 -2636 1501 -3365
1915 -289 163 -541 309 -560 323 -46 33 -67 58 -90 107 -19 38 -20 74 -20 873
0 799 1 832 18 832 10 0 254 -134 543 -298z m13774 -1437 c84 -18 177 -63 472
-229 122 -68 433 -238 690 -378 256 -139 481 -267 499 -284 56 -52 57 -127 4
-187 -37 -43 -82 -56 -233 -68 -301 -24 -503 -75 -711 -182 -307 -157 -481
-400 -462 -647 19 -261 200 -452 580 -614 366 -157 745 -185 1129 -86 232 59
510 190 620 290 67 62 142 166 218 304 56 102 139 188 216 224 49 23 71 27
143 27 47 0 107 -6 134 -14 27 -8 167 -82 310 -164 443 -253 1486 -869 1486
-877 0 -10 -121 -78 -2290 -1305 -1004 -568 -2018 -1142 -2255 -1276 -236
-133 -459 -254 -495 -268 -89 -34 -264 -36 -352 -3 -32 11 -214 109 -405 218
-192 108 -1306 739 -2478 1402 -1171 663 -2138 1211 -2148 1218 -18 12 -18 13
5 27 25 16 752 431 1244 710 328 186 408 239 462 306 189 235 66 561 -248 655
-30 10 -111 21 -180 27 -390 31 -663 129 -824 299 -72 75 -100 136 -100 215
-1 144 123 285 339 386 221 103 672 153 950 105 198 -35 421 -124 541 -217 62
-48 118 -118 170 -214 149 -276 329 -414 575 -440 115 -12 277 23 409 90 68
34 789 441 1244 702 187 107 362 204 390 215 119 47 233 58 351 33z m-4779
-1268 c195 -98 411 -154 696 -181 99 -9 170 -21 193 -32 48 -23 77 -67 83
-126 5 -48 4 -50 -44 -95 -34 -31 -200 -131 -534 -320 -267 -151 -509 -288
-537 -305 l-53 -29 0 600 0 601 53 -34 c28 -18 93 -54 143 -79z m6482 -124 c5
-10 6 -247 3 -528 l-6 -510 -70 -8 c-89 -9 -301 0 -425 19 -229 36 -402 117
-550 260 -79 76 -112 138 -118 217 -13 180 218 374 548 461 123 33 374 69 420
61 26 -4 54 1 101 19 78 30 86 31 97 9z m-6158 -2320 c564 -319 1674 -948
2467 -1396 794 -449 1469 -830 1502 -847 33 -16 100 -42 148 -56 75 -23 106
-27 213 -27 106 0 139 4 213 27 118 35 135 44 864 458 1412 800 4204 2378
4242 2397 22 12 44 21 48 21 4 0 8 -379 8 -843 l0 -842 -23 -48 c-26 -52 -77
-97 -162 -144 -421 -234 -3022 -1705 -4125 -2333 -730 -416 -828 -467 -930
-490 -129 -30 -305 -5 -436 61 -33 16 -286 159 -562 316 -1238 705 -2760 1566
-3832 2169 -605 340 -638 363 -666 459 -7 28 -14 91 -14 140 0 740 7 1565 13
1562 4 -3 468 -265 1032 -584z"/>
</g>
</svg>
